<?xml version="1.0" encoding="utf-8"?>
<!-- Generator: Adobe Illustrator 22.1.0, SVG Export Plug-In . SVG Version: 6.00 Build 0)  -->
<svg version="1.1" id="Layer_1" xmlns="http://www.w3.org/2000/svg" xmlns:xlink="http://www.w3.org/1999/xlink" x="0px" y="0px"
	 viewBox="0 0 612 792" style="enable-background:new 0 0 612 792;" xml:space="preserve">
<style type="text/css">
	.st0{fill:none;stroke:url(#SVGID_1_);stroke-width:2;stroke-linecap:round;stroke-linejoin:round;stroke-miterlimit:10;}
</style>
<linearGradient id="SVGID_1_" gradientUnits="userSpaceOnUse" x1="-158.3726" y1="387.4109" x2="1290.2632" y2="387.4109" gradientTransform="matrix(1 0 0 1 -8.7091 -17.9848)">
	<stop  offset="0" style="stop-color:#3908FF"/>
	<stop  offset="0.3497" style="stop-color:#78CCD8"/>
	<stop  offset="0.6642" style="stop-color:#BF79D8"/>
	<stop  offset="0.9931" style="stop-color:#00BE93"/>
</linearGradient>
<path class="st0" d="M172,708.8h115.1 M165.4,803h147.1 M-47.6,771.7H75.5 M-116.6,771.7h59.1 M-163.9,771.7h35 M164.4,547.5h94.1
	 M296.9,708.8h18 M-46.1,484.6h18 M-18.1,484.6h7 M38.8,515.7h7 M-111.7,371.6h-18 M-139.7,371.6h-7 M140,834.8h115.1 M265,834.8h18
	 M292.9,834.8h7 M232.9,866h7 M215.5,866h7 M144.9,865.9H206 M321.9,803.1h7 M-63.6,803.3H51.5 M61.2,803.3h8 M77.6,803.3h8
	 M-131.2,515.7h18 M-103.6,515.7h7 M159.2,578.9h10 M142.6,578.8h6 M128,708.7h18 M155.9,708.8h7 M117.5,708.8H86
	c-8.7,0-15.8,7.1-15.8,15.8l0,0c0,8.7,7.1,15.8,15.8,15.8l60.6,0l40.6,0c8.7,0,15.8,7.1,15.8,15.8l0,0c0,8.7-7.1,15.8-15.8,15.8
	l-16.6-0.3l-59.6-0.3c-8.7,0-15.8,7.1-15.8,15.8v0c0,8.7,7.1,15.8,15.8,15.8h44.5 M111.1,673.5h94.1 M83,673.4h18 M179.5,578.8H213
	c8.7,0,15.8,7.1,15.8,15.8l0,0c0,8.7-7.1,15.8-15.8,15.8l-97.7-0.3l-87.7-0.3c-8.7,0-15.8,7.1-15.8,15.8v0c0,8.7,7.1,15.8,15.8,15.8
	l111.7,0l151.7,0c8.7,0,15.8,7.1,15.8,15.8v0c0,8.7-7.1,15.8-15.8,15.8h-74.5 M-0.6,626L-0.6,626c0-8.7-7-15.7-15.7-15.7h-113.2
	c-8.7,0-15.7,7-15.7,15.7v0c0,8.7,7,15.7,15.7,15.7h113.2C-7.6,641.7-0.6,634.7-0.6,626z M385.9,594.7L385.9,594.7
	c0-8.7-7-15.7-15.7-15.7H257c-8.7,0-15.7,7-15.7,15.7v0c0,8.7,7,15.7,15.7,15.7h113.2C378.9,610.4,385.9,603.4,385.9,594.7z
	 M-17.4,944.6L-17.4,944.6c0-8.7-7-15.7-15.7-15.7h-117.2c-8.7,0-15.7,7-15.7,15.7l0,0c0,8.7,7,15.7,15.7,15.7h117.2
	C-24.5,960.4-17.4,953.3-17.4,944.6z M269,547.4h74.5c8.7,0,15.8-7.1,15.8-15.8l0,0c0-8.7-7.1-15.8-15.8-15.8l-151.7,0l-111.7,0
	c-8.7,0-15.8-7.1-15.8-15.8v0c0-8.7,7.1-15.8,15.8-15.8l87.7,0.3l129.7,0.3c8.7,0,15.8-7.1,15.8-15.8v0c0-8.7-7.1-15.8-15.8-15.8
	l-179.2,0.2l-40.1,0.2c-8.7,0-15.7-7-15.7-15.7v0c0-8.7,7-15.7,15.7-15.7l23.6-0.1l138.6-0.1c8.7,0,15.7-7,15.7-15.7v0
	c0-8.7-7-15.7-15.7-15.7l-24,0l-347.3,0c-8.7,0-15.8,7.1-15.8,15.8v0c0,8.7,7.1,15.8,15.8,15.8l127.7-0.3l16.6-0.3
	c8.7,0,15.8,7.1,15.8,15.8v0c0,8.7-7.1,15.8-15.8,15.8l-40.6,0l-60.6,0c-8.7,0-15.8,7.1-15.8,15.8v0c0,8.7,7.1,15.8,15.8,15.8h31.5
	 M-74.9,803.2h-74.5c-8.7,0-15.8,7.1-15.8,15.8l0,0c0,8.7,7.1,15.8,15.8,15.8l151.7,0l111.7,0c8.7,0,15.8,7.1,15.8,15.8v0
	c0,8.7-7.1,15.8-15.8,15.8l-87.7-0.3l-97.7-0.3c-8.7,0-15.8,7.1-15.8,15.8l0,0c0,8.7,7.1,15.8,15.8,15.8l147.2-0.2l40.1-0.2
	c8.7,0,15.7,7,15.7,15.7l0,0c0,8.7-7,15.7-15.7,15.7l-23.6,0.1l-80.6,0.1c-8.7,0-15.7,7-15.7,15.7v0c0,8.7,7,15.7,15.7,15.7l24,0
	l266.2,0c8.7,0,15.8-7.1,15.8-15.8l0,0c0-8.7-7.1-15.8-15.8-15.8l-104.7,0.3l-16.6,0.3c-8.7,0-15.8-7.1-15.8-15.8v0
	c0-8.7,7.1-15.8,15.8-15.8l40.6,0l122.7,0c8.7,0,15.8-7.1,15.8-15.8v0c0-8.7-7.1-15.8-15.8-15.8h-93.5 M153.3,547.4l-18.1,0l-21.5,0
	c-8.7,0-15.7,7-15.7,15.7l0,0c0,8.7,7,15.7,15.7,15.7h19.4 M-115.9,673.8h-18 M-143.9,673.8h-7 M-104.7,674h20
	c8.7,0,15.7,7,15.7,15.7l0,0c0,8.7-7,15.7-15.7,15.7l-34,0.1l-30.9,0.1c-8.7,0-15.7,7-15.7,15.7l0,0c0,8.7,7,15.7,15.7,15.7
	l95.1-0.1l95.1-0.1c8.7,0,15.7-7,15.7-15.7l0,0c0-8.7-7-15.7-15.7-15.7l-68.9,0c-8.7,0-15.7-7-15.7-15.7l0,0c0-8.7,7-15.7,15.7-15.7
	h45.5h50.7 M-86.4,515.9h30c8.7,0,15.7,7,15.7,15.7l0,0c0,8.7-7,15.7-15.7,15.7l-34,0.1l-30.9,0.1c-8.7,0-15.7,7-15.7,15.7l0,0
	c0,8.7,7,15.7,15.7,15.7l95.1-0.1l95.1-0.1c8.7,0,15.7-7,15.7-15.7l0,0c0-8.7-7-15.7-15.7-15.7l-68.9,0c-8.7,0-15.7-7-15.7-15.7l0,0
	c0-8.7,7-15.7,15.7-15.7h28.5 M-101,371.5h328.6 M-129.7,980.3h-18 M-157.7,980.3h-7 M-119,980.2H52.5 M313.1,980.3h18 M341.1,980.3
	h7 M302.5,980.2H66.9 M336.4,756.7L336.4,756.7c0-8.8-7.2-16-16-16h-88.8c-8.8,0-16,7.2-16,16l0,0c0,8.8,7.2,16,16,16h88.8
	C329.3,772.7,336.4,765.5,336.4,756.7z M761.3,643.1H646.2 M786.6,548.8H639.5 M561.6,580.1H438.5 M428.6,580.1h-36 M732.6,804.3
	h-94.1 M789.1,643h-18 M446.1,867.2h-18 M463.1,867.2h-7 M519.9,836.2h-7 M344.4,980.2h18 M327.4,980.2h7 M806.1,643.1h-7
	 M729.3,517.1H614.2 M757.1,517.1h-18 M774,517h-7 M714,485.9h-7 M696.7,485.9h-7 M680.1,485.9H619 M543.4,548.5h-8 M559.7,548.5h-8
	 M361,836.1h-18 M377.5,836.1h-7 M643.4,773h-10 M622.8,773h-6 M620.1,643.1h-18 M637.1,643h-7 M629.7,548.8h-44.5
	c-8.7,0-15.8,7.1-15.8,15.8l0,0c0,8.7,7.1,15.8,15.8,15.8l59.6-0.3l16.6-0.3c8.7,0,15.8,7.1,15.8,15.8v0c0,8.7-7.1,15.8-15.8,15.8
	l-40.6,0l-60.6,0c-8.7,0-15.8,7.1-15.8,15.8v0c0,8.7,7.1,15.8,15.8,15.8h31.5 M679.4,678.3h-94.1 M575.1,678.4h-18 M690.7,678.7
	h74.5c8.7,0,15.8,7.1,15.8,15.8l0,0c0,8.7-7.1,15.8-15.8,15.8l-151.7,0l-111.7,0c-8.7,0-15.8,7.1-15.8,15.8l0,0
	c0,8.7,7.1,15.8,15.8,15.8l87.7-0.3l97.7-0.3c8.7,0,15.8,7.1,15.8,15.8v0c0,8.7-7.1,15.8-15.8,15.8h-33.5 M334.9,725.9L334.9,725.9
	c0,8.7,7,15.7,15.7,15.7h113.2c8.7,0,15.7-7,15.7-15.7l0,0c0-8.7-7-15.7-15.7-15.7H350.6C341.9,710.1,334.9,717.2,334.9,725.9z
	 M715.4,757.2L715.4,757.2c0,8.7,7,15.7,15.7,15.7h45.1c8.7,0,15.7-7,15.7-15.7l0,0c0-8.7-7-15.7-15.7-15.7h-45.1
	C722.4,741.4,715.4,748.5,715.4,757.2z M266,407.2L266,407.2c0,8.7,7,15.7,15.7,15.7h163.9c8.7,0,15.7-7,15.7-15.7v0
	c0-8.7-7-15.7-15.7-15.7H281.8C273.1,391.5,266,398.5,266,407.2z M417.8,867.1h-31.5c-8.7,0-15.8,7.1-15.8,15.8l0,0
	c0,8.7,7.1,15.8,15.8,15.8l60.6,0l40.6,0c8.7,0,15.8,7.1,15.8,15.8l0,0c0,8.7-7.1,15.8-15.8,15.8l-16.6-0.3l-127.7-0.3
	c-8.7,0-15.8,7.1-15.8,15.8v0c0,8.7,7.1,15.8,15.8,15.8l441.3,0l74,0c8.7,0,15.7-7,15.7-15.7v0c0-8.7-7-15.7-15.7-15.7l-282.8-0.1
	l-23.6-0.1c-8.7,0-15.7-7-15.7-15.7v0c0-8.7,7-15.7,15.7-15.7l40.1,0.2l179.2,0.2c8.7,0,15.8-7.1,15.8-15.8v0
	c0-8.7-7.1-15.8-15.8-15.8l-129.7,0.3l-87.7,0.3c-8.7,0-15.8-7.1-15.8-15.8v0c0-8.7,7.1-15.8,15.8-15.8l111.7,0l151.7,0
	c8.7,0,15.8-7.1,15.8-15.8v0c0-8.7-7.1-15.8-15.8-15.8h-74.5 M724.6,485.9h31.5c8.7,0,15.8-7.1,15.8-15.8v0
	c0-8.7-7.1-15.8-15.8-15.8l-60.6,0l-40.6,0c-8.7,0-15.8-7.1-15.8-15.8v0c0-8.7,7.1-15.8,15.8-15.8l16.6,0.3l127.7,0.3
	c8.7,0,15.8-7.1,15.8-15.8v0c0-8.7-7.1-15.8-15.8-15.8l-289.2,0l-24,0c-8.7,0-15.7,7-15.7,15.7v0c0,8.7,7,15.7,15.7,15.7l80.6,0.1
	l23.6,0.1c8.7,0,15.7,7,15.7,15.7v0c0,8.7-7,15.7-15.7,15.7l-40.1-0.2l-210.2-0.2c-8.7,0-15.8,7.1-15.8,15.8v0
	c0,8.7,7.1,15.8,15.8,15.8l160.7-0.3l87.7-0.3c8.7,0,15.8,7.1,15.8,15.8v0c0,8.7-7.1,15.8-15.8,15.8l-111.7,0l-91.7,0
	c-8.7,0-15.8,7.1-15.8,15.8v0c0,8.7,7.1,15.8,15.8,15.8l20.1-0.1l120.7-0.1 M607.2,773h-19.4c-8.7,0-15.7,7-15.7,15.7v0
	c0,8.7,7,15.7,15.7,15.7l21.5,0l18.1,0 M406.5,641.5l-63,0.1c-8.7,0-15.7,7-15.7,15.7l0,0c0,8.7,7,15.7,15.7,15.7l85.1-0.1l95.1-0.1
	c8.7,0,15.7-7,15.7-15.7l0,0c0-8.7-7-15.7-15.7-15.7l-68.9,0c-8.7,0-15.7-7-15.7-15.7l0,0c0-8.7,7-15.7,15.7-15.7h45.5H534
	 M502.6,835.9h-28.5c-8.7,0-15.7-7-15.7-15.7v0c0-8.7,7-15.7,15.7-15.7l68.9,0c8.7,0,15.7-7,15.7-15.7v0c0-8.7-7-15.7-15.7-15.7
	l-95.1-0.1l-83.1-0.1c-8.7,0-15.7,7-15.7,15.7v0c0,8.7,7,15.7,15.7,15.7l18.9,0.1l34,0.1c8.7,0,15.7,7,15.7,15.7v0
	c0,8.7-7,15.7-15.7,15.7h-30 M716.7,980.3H373.1 M284.4,371.5h18 M267.4,371.5h7 M542.6,371.6H313.1 M805.3,371.5h-18 M822.2,371.5
	h-7 M541,371.6h235.6 M689.7,595.2L689.7,595.2c0,8.8,7.2,16,16,16h88.8c8.8,0,16-7.2,16-16v0c0-8.8-7.2-16-16-16h-88.8
	C696.9,579.2,689.7,586.3,689.7,595.2z M172,95.8h115.1 M165.4,190.1h147.1 M-47.6,158.8H75.5 M-116.6,158.8h59.1 M-163.9,158.8h35
	 M164.4-65.4h94.1 M296.9,95.8h18 M-46.1-128.4h18 M-18.1-128.4h7 M38.8-97.3h7 M-111.7-241.4h-18 M-139.7-241.4h-7 M140,221.8
	h115.1 M265,221.8h18 M292.9,221.8h7 M232.9,253h7 M215.5,253h7 M144.9,253H206 M321.9,190.1h7 M-63.6,190.3H51.5 M61.2,190.3h8
	 M77.6,190.3h8 M-131.2-97.3h18 M-103.6-97.2h7 M159.2-34.1h10 M142.6-34.2h6 M128,95.8h18 M155.9,95.9h7 M117.5,95.8H86
	c-8.7,0-15.8,7.1-15.8,15.8v0c0,8.7,7.1,15.8,15.8,15.8l60.6,0l40.6,0c8.7,0,15.8,7.1,15.8,15.8v0c0,8.7-7.1,15.8-15.8,15.8
	l-16.6-0.3l-59.6-0.3c-8.7,0-15.8,7.1-15.8,15.8v0c0,8.7,7.1,15.8,15.8,15.8h44.5 M111.1,60.6h94.1 M83,60.4h18 M179.5-34.1H213
	c8.7,0,15.8,7.1,15.8,15.8v0c0,8.7-7.1,15.8-15.8,15.8l-97.7-0.3L27.6-3.1c-8.7,0-15.8,7.1-15.8,15.8v0c0,8.7,7.1,15.8,15.8,15.8
	l111.7,0l151.7,0c8.7,0,15.8,7.1,15.8,15.8v0c0,8.7-7.1,15.8-15.8,15.8h-74.5 M-0.6,13L-0.6,13c0-8.7-7-15.7-15.7-15.7h-113.2
	c-8.7,0-15.7,7-15.7,15.7v0c0,8.7,7,15.7,15.7,15.7h113.2C-7.6,28.7-0.6,21.7-0.6,13z M385.9-18.3L385.9-18.3
	c0-8.7-7-15.7-15.7-15.7H257c-8.7,0-15.7,7-15.7,15.7v0c0,8.7,7,15.7,15.7,15.7h113.2C378.9-2.6,385.9-9.6,385.9-18.3z M-17.4,331.6
	L-17.4,331.6c0-8.7-7-15.7-15.7-15.7h-117.2c-8.7,0-15.7,7-15.7,15.7v0c0,8.7,7,15.7,15.7,15.7h117.2
	C-24.5,347.4-17.4,340.3-17.4,331.6z M269-65.6h74.5c8.7,0,15.8-7.1,15.8-15.8v0c0-8.7-7.1-15.8-15.8-15.8l-151.7,0l-111.7,0
	c-8.7,0-15.8-7.1-15.8-15.8v0c0-8.7,7.1-15.8,15.8-15.8l87.7,0.3l129.7,0.3c8.7,0,15.8-7.1,15.8-15.8v0c0-8.7-7.1-15.8-15.8-15.8
	l-179.2,0.2l-40.1,0.2c-8.7,0-15.7-7-15.7-15.7v0c0-8.7,7-15.7,15.7-15.7l23.6-0.1l138.6-0.1c8.7,0,15.7-7,15.7-15.7v0
	c0-8.7-7-15.7-15.7-15.7l-24,0l-347.3,0c-8.7,0-15.8,7.1-15.8,15.8v0c0,8.7,7.1,15.8,15.8,15.8l127.7-0.3l16.6-0.3
	c8.7,0,15.8,7.1,15.8,15.8v0c0,8.7-7.1,15.8-15.8,15.8l-40.6,0l-60.6,0c-8.7,0-15.8,7.1-15.8,15.8v0c0,8.7,7.1,15.8,15.8,15.8h31.5
	 M-74.9,190.2h-74.5c-8.7,0-15.8,7.1-15.8,15.8v0c0,8.7,7.1,15.8,15.8,15.8l151.7,0l111.7,0c8.7,0,15.8,7.1,15.8,15.8v0
	c0,8.7-7.1,15.8-15.8,15.8l-87.7-0.3l-97.7-0.3c-8.7,0-15.8,7.1-15.8,15.8v0c0,8.7,7.1,15.8,15.8,15.8l147.2-0.2l40.1-0.2
	c8.7,0,15.7,7,15.7,15.7v0c0,8.7-7,15.7-15.7,15.7l-23.6,0.1l-80.6,0.1c-8.7,0-15.7,7-15.7,15.7v0c0,8.7,7,15.7,15.7,15.7l24,0
	l266.2,0c8.7,0,15.8-7.1,15.8-15.8v0c0-8.7-7.1-15.8-15.8-15.8l-104.7,0.3l-16.6,0.3c-8.7,0-15.8-7.1-15.8-15.8v0
	c0-8.7,7.1-15.8,15.8-15.8l40.6,0l122.7,0c8.7,0,15.8-7.1,15.8-15.8v0c0-8.7-7.1-15.8-15.8-15.8h-93.5 M153.3-65.6l-18.1,0l-21.5,0
	c-8.7,0-15.7,7-15.7,15.7v0c0,8.7,7,15.7,15.7,15.7h19.4 M-115.9,60.8h-18 M-143.9,60.8h-7 M-104.7,61.1h20c8.7,0,15.7,7,15.7,15.7
	v0c0,8.7-7,15.7-15.7,15.7l-34,0.1l-30.9,0.1c-8.7,0-15.7,7-15.7,15.7v0c0,8.7,7,15.7,15.7,15.7l95.1-0.1l95.1-0.1
	c8.7,0,15.7-7,15.7-15.7v0c0-8.7-7-15.7-15.7-15.7l-68.9,0c-8.7,0-15.7-7-15.7-15.7v0c0-8.7,7-15.7,15.7-15.7h45.5h50.7 M-86.4-97.1
	h30c8.7,0,15.7,7,15.7,15.7v0c0,8.7-7,15.7-15.7,15.7l-34,0.1l-30.9,0.1c-8.7,0-15.7,7-15.7,15.7v0c0,8.7,7,15.7,15.7,15.7l95.1-0.1
	l95.1-0.1c8.7,0,15.7-7,15.7-15.7v0c0-8.7-7-15.7-15.7-15.7L0-65.6c-8.7,0-15.7-7-15.7-15.7v0c0-8.7,7-15.7,15.7-15.7h28.5
	 M-101-241.5h328.6 M336.4,143.7L336.4,143.7c0-8.8-7.2-16-16-16h-88.8c-8.8,0-16,7.2-16,16v0c0,8.8,7.2,16,16,16h88.8
	C329.3,159.7,336.4,152.5,336.4,143.7z M761.3,30.1H646.2 M786.6-64.2H639.5 M561.6-32.9H438.5 M428.6-32.9h-36 M732.6,191.3h-94.1
	 M789.1,30h-18 M446.1,254.2h-18 M463.1,254.2h-7 M519.9,223.2h-7 M806.1,30.1h-7 M729.3-95.9H614.2 M757.1-95.9h-18 M774-95.9h-7
	 M714-127.1h-7 M696.7-127.1h-7 M680.1-127.1H619 M543.4-64.5h-8 M559.7-64.5h-8 M361,223.1h-18 M377.5,223.1h-7 M643.4,160h-10
	 M622.8,160h-6 M620.1,30.1h-18 M637.1,30h-7 M629.7-64.2h-44.5c-8.7,0-15.8,7.1-15.8,15.8v0c0,8.7,7.1,15.8,15.8,15.8l59.6-0.3
	l16.6-0.3c8.7,0,15.8,7.1,15.8,15.8v0c0,8.7-7.1,15.8-15.8,15.8l-40.6,0l-60.6,0c-8.7,0-15.8,7.1-15.8,15.8v0
	c0,8.7,7.1,15.8,15.8,15.8h31.5 M679.4,65.3h-94.1 M575.1,65.4h-18 M690.7,65.8h74.5c8.7,0,15.8,7.1,15.8,15.8v0
	c0,8.7-7.1,15.8-15.8,15.8l-151.7,0l-106.7,0c-8.7,0-15.8,7.1-15.8,15.8v0c0,8.7,7.1,15.8,15.8,15.8l82.7-0.3l97.7-0.3
	c8.7,0,15.8,7.1,15.8,15.8v0c0,8.7-7.1,15.8-15.8,15.8h-33.5 M334.9,112.9L334.9,112.9c0,8.7,7,15.7,15.7,15.7h113.2
	c8.7,0,15.7-7,15.7-15.7v0c0-8.7-7-15.7-15.7-15.7H350.6C341.9,97.2,334.9,104.2,334.9,112.9z M715.4,144.2L715.4,144.2
	c0,8.7,7,15.7,15.7,15.7h78.2c8.7,0,15.7-7,15.7-15.7v0c0-8.7-7-15.7-15.7-15.7h-78.2C722.4,128.4,715.4,135.5,715.4,144.2z
	 M266-205.8L266-205.8c0,8.7,7,15.7,15.7,15.7h163.9c8.7,0,15.7-7,15.7-15.7v0c0-8.7-7-15.7-15.7-15.7H281.8
	C273.1-221.5,266-214.5,266-205.8z M417.8,254.1h-31.5c-8.7,0-15.8,7.1-15.8,15.8v0c0,8.7,7.1,15.8,15.8,15.8l60.6,0l40.6,0
	c8.7,0,15.8,7.1,15.8,15.8v0c0,8.7-7.1,15.8-15.8,15.8l-16.6-0.3l-127.7-0.3c-8.7,0-15.8,7.1-15.8,15.8v0c0,8.7,7.1,15.8,15.8,15.8
	l441.3,0l24,0c8.7,0,15.7-7,15.7-15.7v0c0-8.7-7-15.7-15.7-15.7l-232.7-0.1l-23.6-0.1c-8.7,0-15.7-7-15.7-15.7v0
	c0-8.7,7-15.7,15.7-15.7l40.1,0.2l179.2,0.2c8.7,0,15.8-7.1,15.8-15.8v0c0-8.7-7.1-15.8-15.8-15.8l-129.7,0.3l-87.7,0.3
	c-8.7,0-15.8-7.1-15.8-15.8v0c0-8.7,7.1-15.8,15.8-15.8l111.7,0l151.7,0c8.7,0,15.8-7.1,15.8-15.8v0c0-8.7-7.1-15.8-15.8-15.8h-74.5
	 M724.6-127.1h31.5c8.7,0,15.8-7.1,15.8-15.8v0c0-8.7-7.1-15.8-15.8-15.8l-60.6,0l-40.6,0c-8.7,0-15.8-7.1-15.8-15.8v0
	c0-8.7,7.1-15.8,15.8-15.8l16.6,0.3l127.7,0.3c8.7,0,15.8-7.1,15.8-15.8v0c0-8.7-7.1-15.8-15.8-15.8l-289.2,0l-24,0
	c-8.7,0-15.7,7-15.7,15.7v0c0,8.7,7,15.7,15.7,15.7l80.6,0.1l23.6,0.1c8.7,0,15.7,7,15.7,15.7v0c0,8.7-7,15.7-15.7,15.7l-40.1-0.2
	l-210.2-0.2c-8.7,0-15.8,7.1-15.8,15.8v0c0,8.7,7.1,15.8,15.8,15.8l160.7-0.3l87.7-0.3c8.7,0,15.8,7.1,15.8,15.8v0
	c0,8.7-7.1,15.8-15.8,15.8l-111.7,0l-91.7,0c-8.7,0-15.8,7.1-15.8,15.8v0c0,8.7,7.1,15.8,15.8,15.8l20.1-0.1l120.7-0.1 M607.2,160
	h-19.4c-8.7,0-15.7,7-15.7,15.7v0c0,8.7,7,15.7,15.7,15.7l21.5,0l18.1,0 M406.5,28.5l-63,0.1c-8.7,0-15.7,7-15.7,15.7v0
	c0,8.7,7,15.7,15.7,15.7l85.1-0.1l95.1-0.1c8.7,0,15.7-7,15.7-15.7v0c0-8.7-7-15.7-15.7-15.7l-68.9,0c-8.7,0-15.7-7-15.7-15.7v0
	c0-8.7,7-15.7,15.7-15.7l45.5,0H534 M502.6,223h-28.5c-8.7,0-15.7-7-15.7-15.7v0c0-8.7,7-15.7,15.7-15.7l68.9,0
	c8.7,0,15.7-7,15.7-15.7v0c0-8.7-7-15.7-15.7-15.7l-95.1-0.1l-83.1-0.1c-8.7,0-15.7,7-15.7,15.7v0c0,8.7,7,15.7,15.7,15.7l18.9,0.1
	l34,0.1c8.7,0,15.7,7,15.7,15.7v0c0,8.7-7,15.7-15.7,15.7h-30 M284.4-241.5h18 M267.4-241.5h7 M542.6-241.4H313.1 M805.3-241.5h-18
	 M822.2-241.5h-7 M541-241.4h235.6 M689.7-17.8L689.7-17.8c0,8.8,7.2,16,16,16h88.8c8.8,0,16-7.2,16-16v0c0-8.8-7.2-16-16-16h-88.8
	C696.9-33.8,689.7-26.7,689.7-17.8z M1075.1,708.8h115.1 M1068.4,803h147.1 M837.4,771.7h141.1 M1067.4,547.5h94.1 M1199.9,708.8h18
	 M911,484.6h18 M939,484.6h7 M941.8,515.7h7 M1043.1,834.8h115.1 M1168,834.8h18 M1195.9,834.8h7 M1135.9,866h7 M1118.6,866h7
	 M1047.9,865.9h61.1 M1224.9,803.1h7 M964.2,803.3h8 M980.6,803.3h8 M799.4,515.7h7 M1062.3,578.9h10 M1045.6,578.8h6 M1031,708.7
	h18 M1058.9,708.8h7 M1020.5,708.8h-31.5c-8.7,0-15.8,7.1-15.8,15.8l0,0c0,8.7,7.1,15.8,15.8,15.8l60.6,0l40.6,0
	c8.7,0,15.8,7.1,15.8,15.8l0,0c0,8.7-7.1,15.8-15.8,15.8l-16.6-0.3l-59.6-0.3c-8.7,0-15.8,7.1-15.8,15.8v0c0,8.7,7.1,15.8,15.8,15.8
	h44.5 M1014.1,673.5h94.1 M986,673.4h18 M1082.5,578.8h33.5c8.7,0,15.8,7.1,15.8,15.8l0,0c0,8.7-7.1,15.8-15.8,15.8l-97.7-0.3
	l-174.7-0.3c-8.7,0-15.8,7.1-15.8,15.8v0c0,8.7,7.1,15.8,15.8,15.8l198.8,0l151.7,0c8.7,0,15.8,7.1,15.8,15.8v0
	c0,8.7-7.1,15.8-15.8,15.8h-74.5 M1172,547.4h74.5c8.7,0,15.8-7.1,15.8-15.8l0,0c0-8.7-7.1-15.8-15.8-15.8l-151.7,0l-111.7,0
	c-8.7,0-15.8-7.1-15.8-15.8v0c0-8.7,7.1-15.8,15.8-15.8l87.7,0.3l129.7,0.3c8.7,0,15.8-7.1,15.8-15.8v0c0-8.7-7.1-15.8-15.8-15.8
	l-179.2,0.2l-40.1,0.2c-8.7,0-15.7-7-15.7-15.7v0c0-8.7,7-15.7,15.7-15.7l23.6-0.1l138.6-0.1c8.7,0,15.7-7,15.7-15.7v0
	c0-8.7-7-15.7-15.7-15.7l-24,0l-265.2,0c-8.7,0-15.8,7.1-15.8,15.8v0c0,8.7,7.1,15.8,15.8,15.8l45.6-0.3l16.6-0.3
	c8.7,0,15.8,7.1,15.8,15.8v0c0,8.7-7.1,15.8-15.8,15.8l-40.6,0l-60.6,0c-8.7,0-15.8,7.1-15.8,15.8v0c0,8.7,7.1,15.8,15.8,15.8h85.5
	 M956.2,803.2h-74.5c-8.7,0-15.8,7.1-15.8,15.8l0,0c0,8.7,7.1,15.8,15.8,15.8l23.6,0l111.7,0c8.7,0,15.8,7.1,15.8,15.8v0
	c0,8.7-7.1,15.8-15.8,15.8l-87.7-0.3l-97.7-0.3c-8.7,0-15.8,7.1-15.8,15.8l0,0c0,8.7,7.1,15.8,15.8,15.8l147.2-0.2l40.1-0.2
	c8.7,0,15.7,7,15.7,15.7l0,0c0,8.7-7,15.7-15.7,15.7l-23.6,0.1l-80.6,0.1c-8.7,0-15.7,7-15.7,15.7v0c0,8.7,7,15.7,15.7,15.7l24,0
	l266.2,0c8.7,0,15.8-7.1,15.8-15.8l0,0c0-8.7-7.1-15.8-15.8-15.8l-104.7,0.3l-16.6,0.3c-8.7,0-15.8-7.1-15.8-15.8v0
	c0-8.7,7.1-15.8,15.8-15.8l40.6,0l122.7,0c8.7,0,15.8-7.1,15.8-15.8v0c0-8.7-7.1-15.8-15.8-15.8h-93.5 M1056.3,547.4l-18.1,0
	l-21.5,0c-8.7,0-15.7,7-15.7,15.7l0,0c0,8.7,7,15.7,15.7,15.7h19.4 M835.3,705.5l-25.9,0.3c-8.7,0-15.7,7-15.7,15.7l0,0
	c0,8.7,7,15.7,15.7,15.7l39.1-0.1l95.1-0.1c8.7,0,15.7-7,15.7-15.7l0,0c0-8.7-7-15.7-15.7-15.7l-68.9,0c-8.7,0-15.7-7-15.7-15.7l0,0
	c0-8.7,7-15.7,15.7-15.7h45.5h50.7 M816.6,515.9h30c8.7,0,15.7,7,15.7,15.7l0,0c0,8.7-7,15.7-15.7,15.7l-14.9,0.3
	c-8.7,0-15.7,7-15.7,15.7l0,0c0,8.7,7,15.7,15.7,15.7l45.1-0.1l95.1-0.1c8.7,0,15.7-7,15.7-15.7l0,0c0-8.7-7-15.7-15.7-15.7l-68.9,0
	c-8.7,0-15.7-7-15.7-15.7l0,0c0-8.7,7-15.7,15.7-15.7h28.5 M842,371.5h288.6 M773.3,980.3h-18 M745.3,980.3h-7 M784,980.2h176.5
	 M1216.1,980.3h18 M1244.1,980.3h7 M1205.5,980.2H969.9 M1239.4,756.7L1239.4,756.7c0-8.8-7.2-16-16-16h-88.8c-8.8,0-16,7.2-16,16
	l0,0c0,8.8,7.2,16,16,16h88.8C1232.3,772.7,1239.4,765.5,1239.4,756.7z M1247.4,980.2h18 M1230.4,980.2h7 M1264,836.1h-18
	 M1280.6,836.1h-7 M1187.4,371.5h18 M1170.4,371.5h7 M1075.1,95.8h115.1 M1068.4,190.1h147.1 M883.4,158.8h95.1 M845.5,158.8h29
	 M1067.4-65.4h94.1 M1199.9,95.8h18 M857-128.4h18 M885-128.4h7 M943.8-95.6h7 M1043.1,221.8h115.1 M1168,221.8h18 M1195.9,221.8h7
	 M1135.9,253h7 M1118.6,253h7 M1047.9,253h61.1 M1224.9,190.1h7 M857.4,190.3h97.1 M964.2,190.3h8 M980.6,190.3h8 M870.9,221.8
	l8-0.1 M887.3,221.6l8-0.1 M799-95.8h18 M812.4-95.6 M799.4-97.2 M1062.3-34.1h10 M1045.6-34.2h6 M1031,95.8h18 M1058.9,95.9h7
	 M1020.5,95.8h-31.5c-8.7,0-15.8,7.1-15.8,15.8v0c0,8.7,7.1,15.8,15.8,15.8l60.6,0l40.6,0c8.7,0,15.8,7.1,15.8,15.8v0
	c0,8.7-7.1,15.8-15.8,15.8l-16.6-0.3l-59.6-0.3c-8.7,0-15.8,7.1-15.8,15.8v0c0,8.7,7.1,15.8,15.8,15.8h44.5 M1014.1,60.6h94.1
	 M986,60.4h18 M1082.5-34.1h33.5c8.7,0,15.8,7.1,15.8,15.8v0c0,8.7-7.1,15.8-15.8,15.8l-97.7-0.3l-87.7-0.3
	c-8.7,0-15.8,7.1-15.8,15.8v0c0,8.7,7.1,15.8,15.8,15.8l111.7,0l151.7,0c8.7,0,15.8,7.1,15.8,15.8v0c0,8.7-7.1,15.8-15.8,15.8h-74.5
	 M906,13L906,13c0-8.7-7-15.7-15.7-15.7h-41.1c-8.7,0-15.7,7-15.7,15.7v0c0,8.7,7,15.7,15.7,15.7h41.1C899,28.7,906,21.7,906,13z
	 M957.9,81.6L957.9,81.6c0-8.7-7-15.7-15.7-15.7H818.8c-8.7,0-15.7,7-15.7,15.7v0c0,8.7,7,15.7,15.7,15.7h123.3
	C950.8,97.4,957.9,90.3,957.9,81.6z M1172-65.6h74.5c8.7,0,15.8-7.1,15.8-15.8v0c0-8.7-7.1-15.8-15.8-15.8l-151.7,0l-111.7,0
	c-8.7,0-15.8-7.1-15.8-15.8v0c0-8.7,7.1-15.8,15.8-15.8l87.7,0.3l129.7,0.3c8.7,0,15.8-7.1,15.8-15.8v0c0-8.7-7.1-15.8-15.8-15.8
	l-179.2,0.2l-40.1,0.2c-8.7,0-15.7-7-15.7-15.7v0c0-8.7,7-15.7,15.7-15.7l23.6-0.1l138.6-0.1c8.7,0,15.7-7,15.7-15.7v0
	c0-8.7-7-15.7-15.7-15.7l-24,0l-263.2,0c-8.7,0-15.8,7.1-15.8,15.8v0c0,8.7,7.1,15.8,15.8,15.8l43.6-0.3l16.6-0.3
	c8.7,0,15.8,7.1,15.8,15.8v0c0,8.7-7.1,15.8-15.8,15.8l-40.6,0l-60.6,0c-8.7,0-15.8,7.1-15.8,15.8v0c0,8.7,7.1,15.8,15.8,15.8h31.5
	 M903.4,221.9l113.7,0c8.7,0,15.8,7.1,15.8,15.8v0c0,8.7-7.1,15.8-15.8,15.8l-87.7-0.3l-97.7-0.3c-8.7,0-15.8,7.1-15.8,15.8v0
	c0,8.7,7.1,15.8,15.8,15.8l147.2-0.2l40.1-0.2c8.7,0,15.7,7,15.7,15.7v0c0,8.7-7,15.7-15.7,15.7l-23.6,0.1l-131.6,0.1
	c-8.7,0-15.7,7-15.7,15.7v0c0,8.7,7,15.7,15.7,15.7l75,0l266.2,0c8.7,0,15.8-7.1,15.8-15.8v0c0-8.7-7.1-15.8-15.8-15.8l-104.7,0.3
	l-16.6,0.3c-8.7,0-15.8-7.1-15.8-15.8v0c0-8.7,7.1-15.8,15.8-15.8l40.6,0l122.7,0c8.7,0,15.8-7.1,15.8-15.8v0
	c0-8.7-7.1-15.8-15.8-15.8h-93.5 M1056.3-65.6l-18.1,0l-21.5,0c-8.7,0-15.7,7-15.7,15.7v0c0,8.7,7,15.7,15.7,15.7h19.4 M822.6-95.4
	h30c8.7,0,15.7,7,15.7,15.7v0c0,8.7-7,15.7-15.7,15.7l-7.9,0.3c-8.7,0-15.7,7-15.7,15.7v0c0,8.7,7,15.7,15.7,15.7l38.1-0.1l95.1-0.1
	c8.7,0,15.7-7,15.7-15.7v0c0-8.7-7-15.7-15.7-15.7l-68.9,0c-8.7,0-15.7-7-15.7-15.7v0c0-8.7,7-15.7,15.7-15.7h28.5 M841-241.5h289.6
	 M1239.4,143.7L1239.4,143.7c0-8.8-7.2-16-16-16h-88.8c-8.8,0-16,7.2-16,16v0c0,8.8,7.2,16,16,16h88.8
	C1232.3,159.7,1239.4,152.5,1239.4,143.7z M1264,223.1h-18 M1280.6,223.1h-7 M1187.4-241.5h18 M1170.4-241.5h7 M806,771.7h8
	 M821.9,771.8h7"/>
</svg>
