<svg version="1.1" id="Layer_1" xmlns="http://www.w3.org/2000/svg" xmlns:xlink="http://www.w3.org/1999/xlink" x="0px" y="0px"
	 viewBox="0 0 100 100" style="enable-background:new 0 0 100 100;" xml:space="preserve">
<style type="text/css">
	.st0{clip-path:url(#SVGID_2_);}
	.st1{clip-path:url(#SVGID_2_);fill:none;stroke:#000000;stroke-width:0.4073;stroke-miterlimit:10;}
	.st2{clip-path:url(#SVGID_4_);fill:none;stroke:#000000;stroke-width:0.4073;stroke-miterlimit:10;}
	.st3{clip-path:url(#SVGID_6_);}
</style>
<g id="Artwork_8_1_">
	<g>
		<defs>
			<rect id="SVGID_1_" y="7.4" width="100" height="88.3"/>
		</defs>
		<clipPath id="SVGID_2_">
			<use xlink:href="#SVGID_1_"  style="overflow:visible;"/>
		</clipPath>
		<line class="st0" x1="42.9" y1="60.4" x2="49.5" y2="56.2"/>
		<polygon class="st0" points="42.9,60.4 42.9,76.9 49.5,72.7 49.5,56.2 		"/>
		<line class="st0" x1="58.1" y1="50.5" x2="64.7" y2="46.3"/>
		<polygon class="st0" points="58.1,50.5 58.1,79.8 64.7,75.5 64.7,46.3 		"/>
		<line class="st1" x1="33.3" y1="66.9" x2="43.1" y2="60.5"/>
		<line class="st1" x1="49.2" y1="56.6" x2="59.1" y2="50.1"/>
		<g class="st0">
			<defs>
				<rect id="SVGID_3_" y="7.4" width="100" height="88.3"/>
			</defs>
			<clipPath id="SVGID_4_">
				<use xlink:href="#SVGID_3_"  style="overflow:visible;"/>
			</clipPath>
			<line class="st2" x1="0.1" y1="82.9" x2="99.9" y2="18.7"/>
		</g>
		<polygon class="st0" points="33.7,56.6 33.7,13 27.1,13 27.1,61 		"/>
		<line class="st0" x1="42.8" y1="21.7" x2="49.4" y2="17.5"/>
		<polygon class="st0" points="42.8,21.7 42.8,51 49.4,46.7 49.4,17.5 		"/>
		<polygon class="st0" points="58.2,17.4 58.2,41 64.8,36.9 64.8,13.2 		"/>
		<line class="st1" x1="43.1" y1="21.7" x2="33" y2="28.6"/>
		<line class="st1" x1="58.7" y1="17.3" x2="48.6" y2="24.2"/>
		<g class="st0">
			<defs>
				<rect id="SVGID_5_" y="7.4" width="100" height="88.3"/>
			</defs>
			<clipPath id="SVGID_6_">
				<use xlink:href="#SVGID_5_"  style="overflow:visible;"/>
			</clipPath>
			<path class="st3" d="M33.7,66.4l-6.6,4.2v16.5c2.1,1.2,4.3,2.2,6.6,3.1V66.4z"/>
			<path class="st3" d="M67.1,9.1l-1.5,2.6c14.8,6.6,25,21.4,25,38.7c0,23.4-19,42.4-42.4,42.4c-5.1,0-10-0.9-14.5-2.5
				c-2.3-0.8-4.5-1.9-6.6-3.1c-12.7-7.3-21.2-21-21.2-36.7c0-18.3,11.6-33.8,27.8-39.8V7.4c-17.9,6.1-30.8,23-30.8,43
				c0,17.4,9.8,32.6,24.2,40.2c2.1,1.1,4.3,2.1,6.6,2.8c4.6,1.5,9.4,2.4,14.5,2.4c25.1,0,45.4-20.3,45.4-45.4
				C93.6,32.1,82.7,16.3,67.1,9.1"/>
			<polygon class="st3" points="33.7,7.4 30,8.9 27.8,13.1 33.7,13 			"/>
		</g>
	</g>
</g>
</svg>
