<svg version="1.1" id="Layer_1" xmlns="http://www.w3.org/2000/svg" xmlns:xlink="http://www.w3.org/1999/xlink" x="0px" y="0px"
	 viewBox="0 0 60 60" style="enable-background:new 0 0 100 100;" xml:space="preserve">
<style type="text/css">
	.st0{clip-path:url(#SVGID_2_);}
	.st1{clip-path:url(#SVGID_2_);fill:none;stroke:#000000;stroke-width:0.2434;stroke-miterlimit:10;}
	.st2{clip-path:url(#SVGID_4_);fill:none;stroke:#000000;stroke-width:0.2434;stroke-miterlimit:10;}
	.st3{clip-path:url(#SVGID_6_);}
</style>
<g id="Artwork_8_1_">
	<g>
		<defs>
			<rect id="SVGID_1_" y="7" width="59.8" height="52.8"/>
		</defs>
		<clipPath id="SVGID_2_">
			<use xlink:href="#SVGID_1_"  style="overflow:visible;"/>
		</clipPath>
		<line class="st0" x1="25.6" y1="38.6" x2="29.6" y2="36.1"/>
		<polygon class="st0" points="25.6,38.6 25.6,48.5 29.6,46 29.6,36.1 		"/>
		<line class="st0" x1="34.7" y1="32.7" x2="38.7" y2="30.2"/>
		<polygon class="st0" points="34.7,32.7 34.7,50.2 38.7,47.7 38.7,30.2 		"/>
		<line class="st1" x1="19.9" y1="42.6" x2="25.8" y2="38.7"/>
		<line class="st1" x1="29.4" y1="36.4" x2="35.3" y2="32.5"/>
		<g class="st0">
			<defs>
				<rect id="SVGID_3_" y="7" width="59.8" height="52.8"/>
			</defs>
			<clipPath id="SVGID_4_">
				<use xlink:href="#SVGID_3_"  style="overflow:visible;"/>
			</clipPath>
			<line class="st2" x1="0.1" y1="52.1" x2="59.7" y2="13.7"/>
		</g>
		<polygon class="st0" points="20.2,36.4 20.2,10.3 16.2,10.3 16.2,39 		"/>
		<line class="st0" x1="25.6" y1="15.5" x2="29.5" y2="13"/>
		<polygon class="st0" points="25.6,15.5 25.6,33 29.5,30.5 29.5,13 		"/>
		<polygon class="st0" points="34.8,13 34.8,27.1 38.7,24.6 38.7,10.5 		"/>
		<line class="st1" x1="25.7" y1="15.5" x2="19.7" y2="19.7"/>
		<line class="st1" x1="35.1" y1="12.9" x2="29.1" y2="17"/>
		<g class="st0">
			<defs>
				<rect id="SVGID_5_" y="7" width="59.8" height="52.8"/>
			</defs>
			<clipPath id="SVGID_6_">
				<use xlink:href="#SVGID_5_"  style="overflow:visible;"/>
			</clipPath>
			<path class="st3" d="M20.1,42.3l-4,2.5v9.9c1.3,0.7,2.6,1.3,4,1.8V42.3z"/>
			<path class="st3" d="M40.1,8l-0.9,1.6c8.8,4,15,12.8,15,23.1c0,14-11.3,25.3-25.3,25.3c-3,0-6-0.5-8.7-1.5
				c-1.4-0.5-2.7-1.1-4-1.8c-7.6-4.4-12.7-12.6-12.7-22c0-10.9,6.9-20.2,16.6-23.8V7C9.4,10.6,1.7,20.8,1.7,32.7
				c0,10.4,5.9,19.5,14.5,24c1.3,0.7,2.6,1.2,4,1.7c2.7,0.9,5.6,1.4,8.7,1.4c15,0,27.1-12.1,27.1-27.1C55.9,21.7,49.4,12.3,40.1,8"
				/>
			<polygon class="st3" points="20.2,7 17.9,7.9 16.6,10.4 20.2,10.3 			"/>
		</g>
	</g>
</g>
</svg>
