<svg version="1.1" id="Layer_1" xmlns="http://www.w3.org/2000/svg">
			<path class="st3" d="M33.7,66.4l-6.6,4.2v16.5c2.1,1.2,4.3,2.2,6.6,3.1V66.4z"/>
			<path class="st3" d="M67.1,9.1l-1.5,2.6c14.8,6.6,25,21.4,25,38.7c0,23.4-19,42.4-42.4,42.4c-5.1,0-10-0.9-14.5-2.5
				c-2.3-0.8-4.5-1.9-6.6-3.1c-12.7-7.3-21.2-21-21.2-36.7c0-18.3,11.6-33.8,27.8-39.8V7.4c-17.9,6.1-30.8,23-30.8,43
				c0,17.4,9.8,32.6,24.2,40.2c2.1,1.1,4.3,2.1,6.6,2.8c4.6,1.5,9.4,2.4,14.5,2.4c25.1,0,45.4-20.3,45.4-45.4
				C93.6,32.1,82.7,16.3,67.1,9.1"/>
</svg>
